<?xml version="1.0" encoding="UTF-8"?>
<svg id="Layer_1" xmlns="http://www.w3.org/2000/svg" version="1.1" viewBox="0 0 595.28 841.89">
  <defs>
    <style>
      .st0 { fill: #c3a5ff; }
      .st1 {
        fill: #1a1b26;
        stroke: white;
        stroke-width: 4;
        stroke-opacity: 0.9;
        stroke-linejoin: round;
        paint-order: stroke fill;
      }
      .st2 { fill: #ffffff; }
      .st3 { fill: #7c54cd; }
      .st4 { fill: #ffffff; }
      .st5 { fill: #c3a5ff; }
      .st6 { fill: none; }
    </style>
  </defs>
  <!-- Fox body -->
  <polygon class="st1" points="243.64 457.76 229.69 469.94 200.26 477.9 196.65 480.99 203.56 483.16 228.25 488.22 268.32 499.48 309.01 505.73 329.25 505.73 347.61 505.73 369.41 500.38 384.74 450.51 364.66 419.63 360.13 388.11 322.96 349.18 302.67 326.64 294.75 315.14 294.77 314.46 297.81 313.99 306.12 313.29 327.82 310.89 337.42 299.6 337.4 297.92 333.3 295.19 315.64 283.52 313.74 272 303.06 263.43 306.81 226.21 306.02 224.31 304.09 224.66 278.98 242.31 271.76 247.6 270.18 219.32 268.2 220.41 259.65 228.96 249.81 241.57 241.85 252.74 234.73 263.52 217.72 313.67 220.27 316.08 211.15 342.98 209.69 352.48 214.9 361.82 220.8 374.08 223.41 379.83 231.61 414.46 242.18 453.93 243.64 457.76"/>
  <!-- Upper tail triangle — DARK PURPLE (was grey cross, changed from violet) -->
  <polyline class="st3" points="386.81 452.29 339.04 467.74 367.82 423.33"/>
  <path class="st6" d="M331.08,473.46"/>
  <!-- White triangle -->
  <polyline class="st2" points="339.04 467.74 370.17 499.96 386.8 452.24"/>
  <!-- New violet triangle — bottom-left snapped to T4 bottom-right (373.18, 502.47) -->
  <polygon class="st5" points="373.18 502.47 386.8 452.24 395 478"/>
  <!-- T4 — dark purple -->
  <polygon class="st3" points="339.04 467.74 332.77 507.77 349.11 507.77 373.18 502.47 339.04 467.74"/>
  <polyline class="st5" points="284.34 461.57 327.24 507.87 331.24 507.87 339.04 467.74"/>
  <polyline class="st5" points="339.04 467.74 337.66 467.74 331.08 507.77 333.75 507.77"/>
  <path class="st6" d="M255.02,474.55"/>
  <polyline class="st3" points="255.19 474.09 270.01 500.83 284.48 460.89"/>
  <path class="st6" d="M255.02,474.55"/>
  <path class="st6" d="M231.92,471.61"/>
  <polyline class="st3" points="199.37 483.9 228.25 490.11 255.02 475.67 256.37 475.16 257.13 473.77 231.92 471.61 229.69 469.94 200.26 477.9 196.65 480.99 199.37 482.51"/>
  <polyline class="st5" points="229.55 489.26 228.25 490.11 269.84 500.83 269.67 500.06"/>
  <polyline class="st2" points="282.34 461.71 255.19 474.09 229.55 472.23"/>
  <path class="st3" d="M260.37,464.52"/>
  <polyline class="st2" points="301.22 479.1 269.84 500.71 284.28 461.01"/>
  <polyline class="st3" points="270.74 500.45 307.48 507.15 327.9 507.15 301.29 478.86"/>
  <polyline class="st5" points="255.19 474.09 271.32 500.44 229.55 489.34"/>
  <!-- Diamond — merged into single polygon, gap line removed -->
  <polygon class="st4" points="249.04 327.02 264.3 356.7 249.04 386.37 235.94 356.7"/>
</svg>
