<?xml version="1.0" encoding="UTF-8"?>
<svg id="Layer_1" xmlns="http://www.w3.org/2000/svg" version="1.1" viewBox="0 0 595.28 841.89">
  <rect width="595.28" height="841.89" fill="white"/>

  <!-- Fox body outline only -->
  <polygon fill="#e8e8ee" stroke="#333" stroke-width="1.5"
    points="243.64 457.76 229.69 469.94 200.26 477.9 196.65 480.99 203.56 483.16 228.25 488.22 268.32 499.48 309.01 505.73 329.25 505.73 347.61 505.73 369.41 500.38 384.74 450.51 364.66 419.63 360.13 388.11 322.96 349.18 302.67 326.64 294.75 315.14 294.77 314.46 297.81 313.99 306.12 313.29 327.82 310.89 337.42 299.6 337.4 297.92 333.3 295.19 315.64 283.52 313.74 272 303.06 263.43 306.81 226.21 306.02 224.31 304.09 224.66 278.98 242.31 271.76 247.6 270.18 219.32 268.2 220.41 259.65 228.96 249.81 241.57 241.85 252.74 234.73 263.52 217.72 313.67 220.27 316.08 211.15 342.98 209.69 352.48 214.9 361.82 220.8 374.08 223.41 379.83 231.61 414.46 242.18 453.93 243.64 457.76"/>

  <!-- T1 — upper tail (dark purple) -->
  <polyline fill="#c3b8f0" stroke="#333" stroke-width="1.5" stroke-linejoin="round"
    points="386.81 452.29 340.1 470.35 367.82 423.33"/>
  <text x="364" y="451" font-size="10" font-family="sans-serif" fill="#333" text-anchor="middle">T1</text>

  <!-- T2 — white triangle -->
  <polyline fill="#b8e0f0" stroke="#333" stroke-width="1.5" stroke-linejoin="round"
    points="340.11 469.75 370.17 499.96 386.8 452.24"/>
  <text x="366" y="476" font-size="10" font-family="sans-serif" fill="#333" text-anchor="middle">T2</text>

  <!-- T3 — new violet triangle (brown cross / right border) -->
  <polygon fill="#f0c8b8" stroke="#333" stroke-width="1.5" stroke-linejoin="round"
    points="370.17 499.96 386.8 452.24 395 478"/>
  <text x="384" y="479" font-size="9" font-family="sans-serif" fill="#333" text-anchor="middle">T3</text>

  <!-- T4 — white polygon (green cross) -->
  <polygon fill="#b8f0c8" stroke="#333" stroke-width="1.5" stroke-linejoin="round"
    points="339.04 467.74 332.77 507.77 349.11 507.77 373.18 502.47 339.04 467.74"/>
  <text x="349" y="492" font-size="10" font-family="sans-serif" fill="#333" text-anchor="middle">T4</text>

  <!-- T5 — violet polyline -->
  <polyline fill="#d8b8f0" stroke="#333" stroke-width="1.5" stroke-linejoin="round"
    points="284.34 461.57 327.24 507.87 331.24 507.87 338.11 469.01"/>
  <text x="320" y="488" font-size="10" font-family="sans-serif" fill="#333" text-anchor="middle">T5</text>

  <!-- T6 — violet thin polyline -->
  <polyline fill="#d8b8f0" stroke="#333" stroke-width="1.5" stroke-linejoin="round"
    points="339.04 467.74 337.66 467.74 331.08 507.77 333.75 507.77"/>
  <text x="335" y="492" font-size="9" font-family="sans-serif" fill="#333" text-anchor="middle">T6</text>

  <!-- T7 — violet (st0) -->
  <polyline fill="#f0b8d8" stroke="#333" stroke-width="1.5" stroke-linejoin="round"
    points="255.19 474.09 270.01 500.83 284.48 460.89"/>
  <text x="270" y="480" font-size="10" font-family="sans-serif" fill="#333" text-anchor="middle">T7</text>

  <!-- T8 — dark purple irregular polygon -->
  <polyline fill="#c3b8f0" stroke="#333" stroke-width="1.5" stroke-linejoin="round"
    points="199.37 483.9 228.25 490.11 255.02 475.67 256.37 475.16 257.13 473.77 231.92 471.61 203.04 479.72 200.13 481.37 199.37 482.51"/>
  <text x="228" y="482" font-size="10" font-family="sans-serif" fill="#333" text-anchor="middle">T8</text>

  <!-- T9 — violet thin polyline -->
  <polyline fill="#d8b8f0" stroke="#333" stroke-width="1.5" stroke-linejoin="round"
    points="229.55 489.26 228.25 490.11 269.84 500.83 269.67 500.06"/>
  <text x="249" y="499" font-size="9" font-family="sans-serif" fill="#333" text-anchor="middle">T9</text>

  <!-- T10 — white triangle -->
  <polyline fill="#b8e0f0" stroke="#333" stroke-width="1.5" stroke-linejoin="round"
    points="282.34 461.71 253.5 475.11 229.55 472.23"/>
  <text x="255" y="471" font-size="10" font-family="sans-serif" fill="#333" text-anchor="middle">T10</text>

  <!-- T11 — white triangle -->
  <polyline fill="#b8e0f0" stroke="#333" stroke-width="1.5" stroke-linejoin="round"
    points="301.22 479.1 269.84 500.71 284.28 461.01"/>
  <text x="285" y="481" font-size="10" font-family="sans-serif" fill="#333" text-anchor="middle">T11</text>

  <!-- T12 — violet (st0) -->
  <polyline fill="#f0b8d8" stroke="#333" stroke-width="1.5" stroke-linejoin="round"
    points="270.74 500.45 307.48 507.15 327.9 507.15 301.29 478.86"/>
  <text x="302" y="500" font-size="10" font-family="sans-serif" fill="#333" text-anchor="middle">T12</text>

  <!-- T13 — violet thin polyline -->
  <polyline fill="#d8b8f0" stroke="#333" stroke-width="1.5" stroke-linejoin="round"
    points="256.21 474.55 271.32 500.44 229.55 489.34"/>
  <text x="252" y="490" font-size="10" font-family="sans-serif" fill="#333" text-anchor="middle">T13</text>

  <!-- D — diamond on chest -->
  <polygon fill="#ffe8b8" stroke="#333" stroke-width="1.5" stroke-linejoin="round"
    points="249.04 327.02 264.3 356.7 249.04 386.37 235.94 356.7"/>
  <text x="249" y="359" font-size="10" font-family="sans-serif" fill="#333" text-anchor="middle">D</text>
</svg>
